<svg xmlns="http://www.w3.org/2000/svg" xmlns:xlink="http://www.w3.org/1999/xlink" id="Layer_1" x="0px" y="0px" viewBox="0 0 22.9 23.2" style="enable-background:new 0 0 22.9 23.2;" xml:space="preserve"> <style type="text/css"> .st0{enable-background:new ;} .st1{fill:#FA706B;} </style> <g class="st0"> <path class="st1" d="M11.3,22C5.6,22,1,17.3,1,11.6C1,5.9,5.6,1.3,11.3,1.3s10.3,4.6,10.3,10.3C21.6,17.3,17,22,11.3,22z M15.3,5.5 c-1.2-0.8-2.5-1.2-4-1.2c-4,0-7.3,3.3-7.3,7.3c0,1.5,0.4,2.9,1.2,4L15.3,5.5z M17.4,7.7L7.3,17.8c1.2,0.8,2.5,1.2,4,1.2 c4,0,7.3-3.3,7.3-7.3C18.6,10.2,18.1,8.8,17.4,7.7z"></path> </g> </svg>